# xmcd
#
# Track frame offsets:
#	150
#	21154
#	35103
#	49063
#	64371
#	80814
#	97541
#	113473
#	129689
#	143593
#	170621
#
# Disc length: 2676 seconds
#
# Revision: 1
# Processed by: cddbd v1.5.2PL0 Copyright (c) Steve Scherf et al.
# Submitted via: audiograbber 1.83.01
#
DISCID=910a720b
DTITLE=Various Artist - ASK-1014
DYEAR=2006
DGENRE=Karaoke
TTITLE0=Big and Rich - 8th of November
TTITLE1=Carolina Rain - Get Outta My Way
TTITLE2=Wilson, Gretchen - California Girls
TTITLE3=Gracin, Josh - Favorite State of Mind
TTITLE4=Rascal Flatts - Me and My Gang
TTITLE5=Rio Grand - Kill Me now
TTITLE6=Lost Trailers, The - Call Me Crazy
TTITLE7=Keith, Toby - A Little Too Late
TTITLE8=Keith, Toby - Get Drunk And Be Somebody
TTITLE9=Adkins, Trace - Swing
TTITLE10=Data - Data Track
EXTD=
EXTT0=
EXTT1=
EXTT2=
EXTT3=
EXTT4=
EXTT5=
EXTT6=
EXTT7=
EXTT8=
EXTT9=
EXTT10=
PLAYORDER=
